<svg width="28" height="28" viewBox="0 0 28 28" fill="none" xmlns="http://www.w3.org/2000/svg">
<path d="M7.76904 1.54169C7.76904 0.747784 8.41264 0.104187 9.20654 0.104187H26.4565C27.2504 0.104187 27.894 0.747784 27.894 1.54169V18.7917C27.894 19.5856 27.2504 20.2292 26.4565 20.2292C25.6626 20.2292 25.019 19.5856 25.019 18.7917V2.97919H9.20654C8.41264 2.97919 7.76904 2.33559 7.76904 1.54169Z" fill="#1B6F58"/>
<path d="M27.4736 0.525277C28.035 1.08665 28.035 1.99684 27.4736 2.55821L3.07847 26.9535C2.5171 27.5149 1.60693 27.5149 1.04554 26.9535C0.484169 26.3921 0.484169 25.4819 1.04554 24.9205L25.4406 0.525277C26.002 -0.0360951 26.9122 -0.0360951 27.4736 0.525277Z" fill="#1B6F58"/>
</svg>
