<?xml version="1.0" standalone="no"?>
<!DOCTYPE svg PUBLIC "-//W3C//DTD SVG 20010904//EN"
 "http://www.w3.org/TR/2001/REC-SVG-20010904/DTD/svg10.dtd">
<svg version="1.0" xmlns="http://www.w3.org/2000/svg"
 width="1060.000000pt" height="1060.000000pt" viewBox="0 0 1060.000000 1060.000000"
 preserveAspectRatio="xMidYMid meet">

<g transform="translate(0.000000,1060.000000) scale(0.100000,-0.100000)"
fill="#000000" stroke="none">
<path d="M7612 9268 c-95 -78 -715 -593 -1617 -1345 -593 -494 -583 -484 -555
-554 27 -64 49 -69 298 -69 l222 0 -2 -762 -3 -763 -2667 -3 -2666 -2 -26 -31
-26 -31 0 -2402 0 -2403 20 -26 c12 -15 37 -31 58 -36 24 -7 1480 -10 4417 -8
3536 2 4384 4 4402 15 57 32 53 -209 53 3262 l0 3190 215 0 c231 0 256 5 289
52 26 36 20 93 -11 127 -16 16 -352 298 -748 627 -396 329 -826 686 -955 793
-129 107 -289 240 -354 294 -216 181 -214 180 -344 75z m455 -441 c301 -251
848 -705 1366 -1135 114 -95 207 -175 207 -177 0 -3 -855 -5 -1900 -5 -1045 0
-1900 3 -1899 8 0 4 67 61 147 128 111 91 930 771 1253 1039 306 255 368 309
363 316 -3 5 -1 8 4 7 16 -5 73 42 66 54 -4 6 -3 8 3 5 6 -4 22 2 34 13 13 11
25 19 26 20 1 0 150 -123 330 -273z m-497 160 c0 -2 -10 -12 -22 -23 l-23 -19
19 23 c18 21 26 27 26 19z m1740 -4812 l0 -3125 -382 0 c-569 -1 -1949 -1
-2380 0 l-378 0 0 3125 0 3125 1570 0 1570 0 0 -3125z m-3355 -870 l0 -2260
-265 0 -265 0 -3 946 -2 945 -31 30 -30 29 -355 5 -355 5 93 65 c191 134 347
317 449 525 72 148 108 280 116 427 l6 108 -36 34 c-36 34 -164 93 -261 121
-78 22 -222 45 -286 45 l-57 0 -7 92 c-12 160 -49 304 -112 432 -51 105 -67
116 -167 116 -139 0 -332 -51 -472 -124 -33 -17 -63 -31 -66 -31 -4 0 -31 36
-60 79 -90 134 -230 270 -352 341 -37 21 -56 26 -83 22 -90 -15 -299 -199
-408 -359 l-59 -87 -86 43 c-147 74 -315 116 -461 116 -88 -1 -103 -10 -148
-91 -66 -116 -116 -310 -125 -484 l-3 -60 -40 -3 c-183 -12 -347 -53 -492
-123 -111 -54 -119 -71 -103 -221 17 -162 68 -323 147 -464 67 -121 237 -329
261 -319 8 2 12 1 8 -4 -7 -12 69 -79 163 -145 l73 -51 -130 -7 c-157 -7 -212
-19 -310 -65 -103 -49 -214 -159 -265 -263 -113 -231 -72 -501 102 -674 32
-31 64 -61 72 -66 11 -7 1 -21 -47 -67 -113 -107 -176 -239 -189 -392 -11
-126 33 -288 101 -377 14 -18 25 -38 25 -43 0 -8 -99 -10 -330 -9 l-330 3 0
575 c-1 316 -1 1334 0 2263 l0 1687 2588 -2 2587 -3 0 -2260z m-2485 1642 c28
-26 56 -44 62 -41 6 4 8 2 5 -4 -4 -5 11 -33 33 -60 104 -133 183 -304 221
-483 27 -125 32 -368 10 -489 -29 -162 -98 -338 -182 -461 -69 -102 -218 -249
-253 -249 -6 0 -38 22 -71 49 -33 27 -64 49 -69 48 -6 -1 -10 5 -11 13 -1 8
-7 14 -14 12 -7 -1 -9 2 -6 9 4 6 -4 23 -18 37 -106 114 -207 339 -242 536
-22 130 -20 353 5 477 54 266 180 487 359 635 l65 54 27 -18 c15 -9 50 -38 79
-65z m-924 -217 c65 -19 254 -103 254 -114 0 -3 -5 -17 -11 -33 -46 -115 -71
-261 -76 -448 -4 -143 -2 -189 16 -294 36 -209 106 -390 213 -548 27 -40 46
-73 43 -73 -18 0 -132 67 -200 117 -239 178 -419 458 -487 757 -31 136 -31
370 0 486 13 46 33 106 44 133 l21 49 57 -6 c32 -4 88 -16 126 -26z m1856 -45
c48 -127 62 -222 55 -385 -9 -184 -37 -304 -114 -470 -87 -190 -217 -354 -383
-484 -64 -50 -198 -131 -205 -124 -3 3 16 36 41 74 234 345 297 864 155 1268
l-19 55 76 39 c108 56 260 101 332 98 33 -1 36 -4 62 -71z m-2318 -577 c2 -7
12 -47 21 -88 54 -237 185 -479 374 -691 79 -88 250 -216 370 -277 l93 -47
-108 -3 c-60 -1 -139 2 -175 7 -187 29 -398 120 -563 243 -55 40 -103 72 -108
70 -4 -1 -7 4 -6 10 2 7 -4 12 -12 10 -8 -2 -12 0 -8 3 4 4 -18 35 -48 69 -70
76 -155 204 -193 287 -56 124 -100 310 -77 328 22 17 161 62 235 75 100 19
200 20 205 4z m2798 -8 c56 -12 126 -32 157 -45 l56 -24 -2 -52 c-5 -114 -76
-302 -164 -430 -60 -89 -203 -235 -297 -302 -162 -117 -379 -210 -552 -237
-41 -6 -124 -10 -184 -8 l-109 3 96 48 c102 50 229 139 316 221 206 195 374
492 436 769 l17 77 65 0 c36 0 110 -9 165 -20z m336 -1452 l3 -138 -1368 -1
c-752 -1 -1383 -2 -1400 -4 -48 -4 -81 -30 -94 -74 -9 -32 -9 -44 6 -74 9 -19
24 -39 33 -44 9 -4 647 -10 1417 -13 l1400 -5 0 -135 0 -135 -1700 0 -1700 0
-58 27 c-114 53 -188 137 -221 247 -50 168 32 362 187 442 95 50 26 48 1817
46 l1675 -2 3 -137z m-3 -978 l0 -135 -1400 -5 c-770 -3 -1408 -9 -1418 -14
-21 -10 -47 -57 -47 -86 0 -12 7 -35 16 -51 31 -62 8 -60 868 -59 429 1 1052
1 1384 1 l603 -1 -3 -137 -3 -138 -1625 -3 c-984 -1 -1659 1 -1712 7 -149 17
-265 97 -326 229 -23 49 -27 70 -27 152 0 82 4 103 27 152 48 103 156 193 261
218 17 5 790 7 1717 6 l1685 -1 0 -135z"/>
<path d="M6704 6900 c-12 -4 -31 -21 -43 -36 l-21 -27 0 -1838 0 -1839 29 -32
29 -33 382 0 382 0 29 33 29 32 0 1836 c0 2019 4 1880 -61 1903 -38 13 -723
14 -755 1z m606 -689 l0 -489 -212 -1 c-117 0 -221 2 -230 5 -17 5 -18 37 -18
490 l0 484 230 0 230 0 0 -489z m0 -703 c0 -5 0 -237 0 -518 l0 -510 -230 0
-230 0 0 520 0 520 230 -2 c127 -2 230 -6 230 -10z m2 -1700 c2 -260 1 -481
-1 -490 -3 -17 -22 -18 -232 -18 l-229 0 0 490 0 490 230 0 230 0 2 -472z"/>
<path d="M8013 6896 c-17 -8 -36 -23 -42 -35 -17 -31 -15 -3694 1 -3721 30
-47 53 -50 430 -50 335 0 355 1 386 20 18 11 37 32 42 46 7 17 9 676 8 1860
l-3 1834 -28 27 -27 28 -368 2 c-296 2 -373 0 -399 -11z m615 -683 l-3 -488
-230 0 -230 0 -3 488 -2 487 235 0 235 0 -2 -487z m2 -1213 l0 -520 -232 2
-233 3 -3 505 c-1 278 0 511 3 518 3 9 60 12 235 12 l230 0 0 -520z m-2 -1213
l2 -487 -232 2 -233 3 -3 475 c-1 261 0 481 3 488 3 10 55 12 232 10 l228 -3
3 -488z"/>
</g>
</svg>
